<?xml version="1.0" encoding="utf-8"?>
<!-- Generator: Adobe Illustrator 25.2.1, SVG Export Plug-In . SVG Version: 6.00 Build 0)  -->
<svg version="1.1" id="Capa_1" xmlns="http://www.w3.org/2000/svg" xmlns:xlink="http://www.w3.org/1999/xlink" x="0px" y="0px"
	 viewBox="0 0 300 300" style="enable-background:new 0 0 300 300;" xml:space="preserve">
<style type="text/css">
	.st0{fill:#F9F9F9;}
	.st1{fill:#0EB5C6;}
	.st2{fill:#6D378F;}
	.st3{fill:#D95943;}
</style>
<path class="st0" d="M30.5,0.9h238.8c16.4,0,30,13.5,30,29.9v238.9c0,16.4-13.5,29.9-30,29.9H30.5c-16.4,0-30-13.5-30-29.9V30.6
	C0.7,14.5,14,0.9,30.5,0.9z"/>
<path class="st1" d="M158.7,138.2c-3.3-4.4-6.2-9.2-9.6-13.6c-8.2-10.2-22.7-13.7-33.9-7.8c-5.7,3-10.1,7.5-13.8,13.1
	c-2.2,3.1-4.2,6.4-6.6,9.4c-2.1,2.8-4.2,2.8-6.6,0.4c-0.6-0.5-1.1-1.3-1.4-1.9l-6.7-9.8c-6.1-8.5-13.9-14-21.1-14
	c-12.8,0-20.6,4.4-26.5,12.2c-7.3,9.6-13.6,20.2-20.4,30.2l-5.9,9.1c-0.4,0.6-1.3,1.3-0.1,2c1.8,0.9,5.7-0.1,6.8-1.8l13.9-20.6
	c4.3-6.2,7.9-12.9,13.2-18.2c6.8-6.6,14.7-8.3,23.3-5c6.3,2.3,10.4,7.6,14.1,13.2c2.2,3.4,4.4,7,7.3,9.8c3.9,3.9,9.2,3.9,13,0
	c1.5-1.5,3-3.3,4.3-5.2c3-4.3,5.7-8.8,9.2-12.5c8.1-8.3,20.5-9.2,29.4-2c4.2,3.3,7.1,7.8,10.1,12.2c1.8,2.6,3.5,5.2,5.7,7.5
	c2.1,2.1,4.6,3.1,7,2.8v-6.4C161.9,141.4,160.5,140.4,158.7,138.2L158.7,138.2z"/>
<path class="st2" d="M230.6,138.4c-2.4-3.2-4.6-6.8-7-10.1c-4.5-6.3-9.7-11.5-17.1-13.4c-12.1-3.2-22.3,0.7-30.5,10.7
	c-3.3,3.9-5.8,8.5-9,12.7c-1.4,1.9-2.6,2.8-3.9,3.1v6.5c2.1-0.1,4.1-1.1,5.9-2.7c1.3-1.3,2.6-2.7,3.7-4.3c2.3-3.4,4.6-7,7.1-10.2
	c9.7-12.8,25-13.7,35.8-1.9c1.6,1.8,3.1,3.8,4.4,5.7c2.4,3.7,4.7,7.5,7.8,10.6c2.2,2.1,4.8,3.1,7.4,2.8v-6.5
	C233.8,141.5,232.3,140.5,230.6,138.4L230.6,138.4z"/>
<path class="st3" d="M292,124.2c-4.4-5.1-9.7-8.5-16.2-9.8c-11.7-2.2-21.1,2.1-28.7,11.6c-3.1,3.9-5.7,8.3-8.5,12.2
	c-1.3,1.7-2.3,2.6-3.5,3v6.5c2-0.2,3.9-1.2,5.6-2.7c1.3-1.3,2.6-2.7,3.7-4.3c2.3-3.4,4.6-7,7.1-10.2c9.2-12.1,24.5-13.6,34.5-3.2
	c3,3.1,2.2,3.7,5.7-0.2l0.3-0.3C292.9,125.8,292.8,125.1,292,124.2L292,124.2z"/>
<path class="st1" d="M153.7,147.4c-1.5-1.5-2.8-3.2-4.1-5.1c-3-4.3-5.6-8.8-9.2-12.5c-6.9-7-17.6-7.5-25.1-1.2
	c-3.5,3.1-6,6.9-8.5,10.7c-2,2.8-3.7,5.8-6.1,8.3c-3.1,3.1-6.8,4.5-11.2,3.8c-4.4-0.7-7.4-3.6-10.1-7.1c-2.3-3.2-4.5-6.7-6.8-10
	c-4.3-5.8-9.4-10.3-16.5-10.1c-7-0.2-12.1,3.1-16.2,8.3c-6.6,8.5-12.1,18-18.4,26.7c-1.4,2.1-2.9,4.2-4.3,6.4
	c-0.4,0.5-1.1,1.3,0.1,1.8c2.1,0.9,6-0.2,7.3-2.1l19-27.9c6.6-9.3,16.4-9.3,23.2-0.2c3.1,4,5.7,8.3,8.6,12.3
	c8.3,11,22.3,11.2,30.9,0.4c3.2-4,5.8-8.5,9-12.7c6.6-9,16.4-9.1,23.1-0.1c3,3.9,5.7,8.3,8.5,12.2c4.4,5.9,10.3,8.9,16.2,8.7v-6.6
	C159.9,151.6,156.4,150.2,153.7,147.4L153.7,147.4z"/>
<path class="st2" d="M223,144.7c-3.1-3.9-5.6-8.3-8.4-12.2c-7.8-10.3-21.1-10.9-29.2-2.3c-2.1,2.2-3.9,4.5-5.6,7
	c-2.3,3.6-4.5,7.2-7.4,10.2c-2.6,2.7-5.8,4-9.1,4v6.6c5.6-0.2,11.1-3.1,15.3-8.5c3.1-4,5.8-8.3,8.9-12.6c1.6-2.3,3.7-4.3,6.3-5.3
	c5.9-2.5,11.9-0.4,16.4,5.7c2.8,3.9,5.5,8.1,8.3,11.9c4.6,6.3,10.8,9.2,16.9,8.9v-6.7C230,151.7,226.1,148.8,223,144.7L223,144.7z"
	/>
<path class="st3" d="M285,131.1c-6.6-7.7-17.5-9.2-25.5-3.2c-2.3,1.8-4.3,4-6.1,6.5c-3.3,4.3-5.7,9.2-9.4,13.2
	c-2.4,2.5-5.3,3.8-8.5,3.9h-0.1v6.7c5.5-0.3,10.8-3.1,15-8.7c3.1-4.2,5.8-8.5,9-12.7c5.7-7.6,14.5-8.2,21-1.2
	c1.5,1.7,2.6,1.7,3.9-0.1l0.9-0.9C286.2,133.3,286.1,132.3,285,131.1L285,131.1z"/>
<path class="st1" d="M154,159.7c-4.9-2.2-8.4-6.5-11.7-11c-2.6-3.7-4.8-7.7-7.9-11c-2.1-2.2-4.5-3.3-7.5-3.2
	c-3.9,0.1-6.6,2.6-8.9,5.7c-2.5,3.4-4.8,7.1-7.4,10.7c-6.3,8.7-14.4,12.7-24.6,10.2c-6-1.3-10.4-5.7-14.1-10.7
	c-2.5-3.4-4.8-7.1-7.4-10.7c-2.2-3.1-4.8-5.6-8.9-5.3c-2.7-0.2-5,1.1-7.1,3.1c-3,3-5,6.6-7.3,10.1l-11.7,17.6
	c-0.4,0.6-1.4,1.4-0.1,2.1c1.9,1.1,5.7-0.1,6.9-2l9.1-13.3l6.2-9c2.2-3,4.6-3.1,6.9-0.4c1.2,1.3,2.2,2.7,3.2,4.2
	c3.1,4.5,5.9,9.1,9.7,12.8c9,9.1,22.4,11,33.2,4.8c5.5-3.2,9.4-8.1,13-13.4c1.9-2.8,3.7-5.7,5.7-8.3c2.1-2.6,4.4-2.7,6.6-0.3
	c1.8,1.9,3.1,3.9,4.6,6.2c2.5,3.9,5.3,7.8,8.4,11c5.7,5.7,12.5,8.5,20.1,8.3v-6.5C160.1,161.8,157,161.1,154,159.7L154,159.7z"/>
<path class="st3" d="M278.8,139.1c-3.4-5.3-10.2-6.3-14.9-1.9c-1.6,1.5-3.1,3.3-4.3,5.2c-3.1,4.4-5.8,9-9.5,12.7
	c-4.1,4.2-9.4,6.4-14.8,6.6v6.5c9.2-0.3,16.4-4.9,22.3-12.3c3.4-4.3,5.9-9.3,9.5-13.4c2.1-2.3,4.1-2.2,6.2-0.1
	c2.1,2.1,2.1,2.1,4.1-0.2c0.4-0.5,0.9-0.9,1.3-1.4C279.3,140.3,279.2,139.7,278.8,139.1L278.8,139.1z"/>
<path class="st2" d="M225.2,159.5c-5-2.5-8.5-6.8-11.8-11.5c-2.5-3.7-4.7-7.6-7.9-10.8c-2.6-2.6-5.7-3.4-9.1-2.5
	c-3.1,0.8-5.1,3.1-7,5.7l-7.4,10.7c-5.5,7.5-12,10.7-18.8,10.7v6.5h0.4c9.3-0.3,16.6-5,22.4-12.7c3.1-4.2,5.9-8.5,9.1-12.7
	c2.2-2.8,4.7-2.7,6.9,0c1.3,1.7,2.5,3.4,3.7,5.1c2.7,4,5.4,8.2,8.9,11.6c5.8,5.8,12.7,8.7,20.6,8.4h0.1v-6.5
	C231.8,161.9,228.4,161.2,225.2,159.5L225.2,159.5z M199,148.5c-3.4,0-6.2,3-6.2,6.4c0,3.3,2.6,6.2,5.7,6.3c3.2,0.1,6.1-3,6.1-6.6
	C204.6,151.1,202.3,148.5,199,148.5z M198.7,157.3c-1.2,0-2.2-1.2-2.2-2.4c0-1.3,1.1-2.5,2.4-2.5c1.3,0,2.2,1,2.2,2.3v0.1
	C201,156.2,199.9,157.4,198.7,157.3z"/>
</svg>
